<svg xmlns="http://www.w3.org/2000/svg" viewBox="0 0 99.01 107.87"><g data-name="Livello 2"><path d="M98.51 47.92V14l-.11-.27a1.11 1.11 0 0 0-.13-.26l-.09-.13a1.44 1.44 0 0 0-.28-.27l-.17-.1-.15-.08L49.88.55a1.37 1.37 0 0 0-.75 0L1.6 12.82l-.17.06-.14.12-.18.11-.19.16-.17.21c0 .06-.07.13-.11.2l-.05.14a1.21 1.21 0 0 0 0 .14L.5 14v33.92a1.5 1.5 0 0 0 1 1.43L9.92 52l-8.31 2.17a1.48 1.48 0 0 0-.27.1l-.45.26-.18.24s0 .17-.07.21l-.06.14v29.36a1.51 1.51 0 0 0 .85 1.35l47.4 21.37.14.06h.15a1.26 1.26 0 0 0 .38.06 1.37 1.37 0 0 0 .39-.06L97.7 85.81a1.5 1.5 0 0 0 .81-1.33V55.33l-.11-.26c0-.09-.07-.16-.09-.21v-.17l-.39-.27-.1-.07a1.67 1.67 0 0 0-.4-.16L89.09 52l8.38-2.67a1.49 1.49 0 0 0 1.04-1.41Zm-94-1.84V17.77L47 31.92v27.71Zm0 36.79V59.11L47 73.27v28.65ZM52 59.63V31.92l42.5-14.15v28.31Zm0 42.29V73.27l42.5-14.16v23.76Z" data-name="Livello 1" style="fill:#201d1d;stroke:#201d1d;stroke-miterlimit:10"/></g></svg>